<?xml version="1.0" encoding="UTF-8"?>
<svg id="Layer_1" data-name="Layer 1" xmlns="http://www.w3.org/2000/svg" viewBox="0 0 72.9 108.66">
  <defs>
    <style>
      .cls-1 {
        fill: #d3a859;
      }

      .cls-2 {
        isolation: isolate;
      }
    </style>
  </defs>
  <g class="cls-2">
    <g class="cls-2">
      <g class="cls-2">
        <path class="cls-1" d="M16.25,86.37c1.22,0,2.39.17,3.5.52,1.11.35,2.08.9,2.93,1.65.84.75,1.5,1.71,1.99,2.89.49,1.18.74,2.61.74,4.29v3.57c0,1.7-.25,3.15-.74,4.33-.49,1.19-1.15,2.16-1.98,2.9-.83.74-1.8,1.28-2.91,1.62-1.11.34-2.29.51-3.53.51s-2.42-.17-3.52-.51-2.08-.88-2.91-1.62c-.83-.74-1.49-1.71-1.98-2.9-.49-1.19-.73-2.63-.73-4.33v-3.57c0-1.68.24-3.11.73-4.29.49-1.18,1.16-2.14,2-2.89.84-.75,1.81-1.3,2.93-1.65,1.11-.35,2.27-.52,3.49-.52ZM16.25,105.15c.74,0,1.43-.09,2.07-.28.64-.19,1.2-.53,1.68-1.01.48-.48.85-1.13,1.12-1.95s.41-1.85.41-3.09v-2.61c0-1.24-.14-2.27-.41-3.09s-.65-1.47-1.12-1.95c-.48-.48-1.04-.81-1.68-1-.64-.19-1.33-.29-2.07-.29s-1.4.09-2.04.29-1.2.52-1.68,1c-.48.48-.86,1.13-1.14,1.95-.28.82-.42,1.85-.42,3.09v2.61c0,1.24.14,2.27.42,3.09.28.82.66,1.47,1.14,1.95.48.48,1.04.82,1.68,1.01.64.19,1.32.28,2.04.28Z"/>
        <path class="cls-1" d="M37.82,91.44c.74,0,1.46.11,2.14.33.69.22,1.31.58,1.84,1.07.54.49.97,1.12,1.29,1.91.32.78.48,1.72.48,2.82v10.77h-3.78v-9.96c0-2.42-1.05-3.63-3.15-3.63-.3,0-.66.04-1.06.13-.41.09-.8.27-1.17.54-.37.27-.69.66-.95,1.15-.26.5-.39,1.16-.39,1.98v9.78h-3.78v-16.53h3.57v1.89h.06c.58-.84,1.29-1.42,2.15-1.75s1.77-.5,2.75-.5Z"/>
        <path class="cls-1" d="M57.5,95.19c-.28-.12-.58-.21-.9-.27-.32-.06-.72-.09-1.2-.09-.52,0-1,.09-1.46.27-.45.18-.84.44-1.17.77-.33.33-.59.72-.78,1.17-.19.45-.29.94-.29,1.48v9.81h-3.78v-16.53h3.63v2.4h.06c.44-.84,1.03-1.51,1.75-2.01.73-.5,1.69-.75,2.87-.75.42,0,.84.03,1.26.09.42.06.78.14,1.08.24l-1.08,3.42Z"/>
        <path class="cls-1" d="M61.19,85.29h3.96v4.08h-3.96v-4.08ZM61.28,91.8h3.78v16.53h-3.78v-16.53Z"/>
      </g>
    </g>
  </g>
  <path class="cls-1" d="M36.4,73.1C17.6,73.1,1.6,58.4.1,39.6c0-1-.1-2-.1-3,0-6.3,1.6-12.5,4.8-18,1.2-2.2,4-2.9,6.1-1.7,2.2,1.2,2.9,4,1.7,6.1-2.3,4.1-3.6,8.8-3.6,13.5s0,1.5,0,2.3c1.2,14.2,13.2,25.2,27.4,25.2s1.5,0,2.3,0c14.2-1.2,25.2-13.2,25.2-27.4s0-1.5,0-2.3c-1.2-14.9-14.5-26.4-29.7-25.2-2.5.2-4.7-1.6-4.9-4.1-.2-2.5,1.6-4.7,4-4.9h.2c1,0,2-.1,3-.1,18.8,0,34.8,14.7,36.3,33.5,0,1,.1,2,.1,3,0,18.8-14.7,34.8-33.5,36.3-1,0-2,.1-3,.1v.2Z"/>
</svg>