<?xml version="1.0" encoding="UTF-8"?>
<svg id="Layer_1" xmlns="http://www.w3.org/2000/svg" version="1.1" viewBox="0 0 100 100">
  <!-- Generator: Adobe Illustrator 29.3.0, SVG Export Plug-In . SVG Version: 2.1.0 Build 146)  -->
  <defs>
    <style>
      .st0 {
        fill: #d3a758;
      }
    </style>
  </defs>
  <path class="st0" d="M50,9c-7.3,0-14.5,2-20.8,5.7-2.4,1.4-3.2,4.5-1.8,6.8,1.4,2.4,4.5,3.2,6.8,1.8,5.5-3.3,12-4.7,18.4-4.2,15.9,1.4,28.3,14.9,28.3,30.8s0,1.8-.1,2.7c-1.5,16.8-16.5,29.7-33.6,28.2-15.9-1.4-28.3-14.9-28.3-30.8s0-1.8.1-2.7v-.2c.3-2.7-1.7-5.2-4.5-5.5-2.8-.3-5.2,1.8-5.5,4.5v.3c-.1,1.2-.2,2.4-.2,3.6,0,21,16.4,39,37.4,40.8,1.2.1,2.4.2,3.6.2,21,0,39-16.4,40.8-37.4.1-1.2.2-2.4.2-3.6,0-21-16.4-39-37.4-40.8-1.2-.1-2.4-.2-3.6-.2Z"/>
</svg>