<?xml version="1.0" encoding="UTF-8"?>
<svg id="Layer_1" xmlns="http://www.w3.org/2000/svg" version="1.1" viewBox="0 0 120 120">
  <!-- Generator: Adobe Illustrator 29.3.0, SVG Export Plug-In . SVG Version: 2.1.0 Build 146)  -->
  <defs>
    <style>
      .st0 {
        fill: #d3a758;
      }

      .st1 {
        fill: #1b2233;
      }
    </style>
  </defs>
  <rect class="st1" y="0" width="120" height="120" rx="27" ry="27"/>
  <path class="st0" d="M60,96.5c-20.1,0-36.5-16.4-36.5-36.5s2.2-14.5,6.3-20.6c1.4-2.1,4.2-2.6,6.3-1.2,2.1,1.4,2.6,4.2,1.2,6.3-3.1,4.6-4.8,9.9-4.8,15.5,0,15.2,12.3,27.5,27.5,27.5s27.5-12.3,27.5-27.5-12.3-27.5-27.5-27.5h-.1c-2.5,0-4.5-2-4.5-4.5s2-4.5,4.5-4.5h.1c20.1,0,36.5,16.4,36.5,36.5s-16.4,36.5-36.5,36.5Z"/>
</svg>