<?xml version="1.0" encoding="UTF-8"?>
<svg id="Layer_1" xmlns="http://www.w3.org/2000/svg" version="1.1" viewBox="0 0 120 120">
  <!-- Generator: Adobe Illustrator 29.3.0, SVG Export Plug-In . SVG Version: 2.1.0 Build 146)  -->
  <defs>
    <style>
      .st0 {
        fill: #d3a758;
      }

      .st1 {
        fill: #1b2233;
      }
    </style>
  </defs>
  <rect class="st1" y="0" width="120" height="120" rx="27" ry="27"/>
  <path class="st0" d="M32.3,57.6v-.2c.3-2.4-1.5-4.7-4.1-4.9-2.5-.3-4.7,1.6-4.9,4v.3c0,1.1-.2,2.2-.2,3.2,0,18.9,14.8,35.1,33.7,36.7,1.1,0,2.2.2,3.2.2,18.9,0,35.1-14.8,36.7-33.7,0-1.1.2-2.2.2-3.2,0-18.9-14.8-35.1-33.7-36.7-1.1,0-2.2-.2-3.2-.2h.2c-6.6,0-13,1.8-18.7,5.1-2.2,1.3-2.9,4.1-1.6,6.1,1.3,2.2,4,2.9,6.1,1.6,5-3,10.8-4.2,16.6-3.8,14.3,1.3,25.5,13.4,25.5,27.7s0,1.6,0,2.4c-1.3,15.1-14.8,26.7-30.2,25.4-14.3-1.3-25.5-13.4-25.5-27.7"/>
</svg>